<?xml version="1.0" encoding="utf-8"?>
<!-- Generator: Adobe Illustrator 18.1.0, SVG Export Plug-In . SVG Version: 6.00 Build 0)  -->
<svg version="1.1" id="Calque_1" xmlns="http://www.w3.org/2000/svg" xmlns:xlink="http://www.w3.org/1999/xlink" x="0px" y="0px"
	 viewBox="0 0 20 20" enable-background="new 0 0 20 20" xml:space="preserve">
<path fill="#1A171B" d="M17.07,2.053H2.93c-0.485,0-0.877,0.393-0.877,0.877v14.14c0,0.484,0.393,0.877,0.877,0.877h7.613v-6.155
	H8.471V9.393h2.071V7.624c0-2.053,1.254-3.171,3.085-3.171c0.877,0,1.631,0.065,1.851,0.094v2.146l-1.27,0.001
	c-0.996,0-1.189,0.473-1.189,1.168v1.532h2.375l-0.309,2.399H13.02v6.155h4.05c0.484,0,0.877-0.393,0.877-0.877V2.93
	C17.947,2.445,17.555,2.053,17.07,2.053z"/>
</svg>
