<svg xmlns="http://www.w3.org/2000/svg" viewBox="0 0 32 32">
  <path fill="currentColor" fill-rule="evenodd" d="M16.5461136 24H8.88307703C8.3952235 24 8 23.6045262 8 23.1168631V8.8830696C8 8.39528315 8.39528683 8 8.88307703 8H23.116983C23.6046498 8 24 8.39528315 24 8.8830696v14.2337935C24 23.6045895 23.6045898 24 23.116983 24h-4.0772351v-6.1960678h2.0797409l.3114115-2.4147223h-2.391151V13.847564c0-.6991164.1941357-1.1755428 1.1966638-1.1755428l1.2786739-.000559v-2.1597457c-.2211418-.0294276-.9801771-.0951736-1.8632541-.0951736-1.8435741 0-3.1057347 1.1253195-3.1057347 3.1918785v1.7807925h-2.0850775v2.4147223h2.0850775V24h.0000154z"/>
</svg>
