<svg id="Layer_1" data-name="Layer 1" xmlns="http://www.w3.org/2000/svg" viewBox="0 0 32 32"><title>googleplus</title><path d="M20,16.51a10.78,10.78,0,0,1-1.21,5.17,8.75,8.75,0,0,1-3.46,3.54,10.23,10.23,0,0,1-5.15,1.28,10,10,0,0,1-4-.81A10,10,0,0,1,.81,20.25a10.17,10.17,0,0,1,0-8A10,10,0,0,1,6.25,6.86a10,10,0,0,1,4-.81,9.67,9.67,0,0,1,6.85,2.68L14.3,11.39a5.63,5.63,0,0,0-4.07-1.58,6.11,6.11,0,0,0-3.17.86,6.47,6.47,0,0,0-3.16,5.59,6.47,6.47,0,0,0,3.16,5.59,6.11,6.11,0,0,0,3.17.86,6.74,6.74,0,0,0,2.13-.32,5.4,5.4,0,0,0,1.6-.8,5.81,5.81,0,0,0,1.1-1.1,5,5,0,0,0,.68-1.16,5.18,5.18,0,0,0,.3-1h-5.8V14.81h9.65A9.09,9.09,0,0,1,20,16.51Zm12.09-1.7v2.93H29.22v2.92H26.3V17.74H23.38V14.81H26.3V11.89h2.93v2.92h2.92Z" style="fill:#444"/></svg>