<svg xmlns="http://www.w3.org/2000/svg" viewBox="0 0 32 32">
  <path fill="currentColor" fill-rule="evenodd" d="M16.0000188 7c-2.4442729 0-2.7507604.0103605-3.710708.05416013-.9579451.04369201-1.612189.19584753-2.1846528.4183463-.59182881.22996541-1.09373637.53770507-1.59411019 1.03804138-.50033631.50037382-.80807635 1.00228138-1.03804138 1.59411019-.22249877.5724676-.37465429 1.2267077-.4183463 2.1846528C7.0103605 13.2492547 7 13.5557459 7 16.0000188c0 2.4442353.0103605 2.7507265.05416013 3.7106704.04369201.9579451.19584753 1.612189.4183463 2.1846528.22996541.5918288.53770507 1.0937364 1.03804138 1.5941102.50037382.5003363 1.00228138.8080763 1.59411019 1.0380789.5724676.2224627 1.2267077.3746183 2.1846528.4183088C13.2492547 24.9896395 13.5557459 25 16.0000188 25c2.4442353 0 2.7507265-.0103605 3.7106704-.0541601.9579451-.043692 1.612189-.1958476 2.1846528-.4183088.5918288-.2300014 1.0937364-.5377426 1.5941102-1.0380789.5003363-.5003738.8080763-1.0022814 1.0380789-1.5941102.2224627-.5724676.3746183-1.2267077.4183088-2.1846528C24.9896395 18.7507453 25 18.4442541 25 16.0000188c0-2.4442729-.0103605-2.7507604-.0541601-3.710708-.043692-.9579451-.1958476-1.612189-.4183088-2.1846528-.2300014-.59182881-.5377426-1.09373637-1.0380789-1.59411019-.5003738-.50033631-1.0022814-.80807635-1.5941102-1.03804138-.5724676-.22249877-1.2267077-.37465429-2.1846528-.4183463C18.7507453 7.0103605 18.4442541 7 16.0000188 7zm0 1.6216202c2.403079 0 2.6877415.0091815 3.6367542.05248088.8774926.04001251 1.3540351.18663003 1.6711689.30988317.4200976.16326602.7199064.35829192 1.0348276.67324883.3149566.31492054.5099814.61473012.6732489 1.03482762.1232531.3171357.2698706.7936801.3098831 1.671169.0432994.9490126.0524809 1.2336751.0524809 3.6367917 0 2.403079-.0091815 2.6877416-.0524809 3.6367542-.0400125.8774926-.18663 1.3540351-.3098831 1.6711689-.163266.4200976-.3582919.7199064-.6732489 1.0348277-.3149205.3149565-.61473.5099813-1.0348276.6732488-.3171357.1232531-.7936801.2698707-1.6711689.3098832-.9488702.0432993-1.2334952.0524808-3.6367542.0524808-2.4032929 0-2.6878841-.0091815-3.6367918-.0524808-.8774926-.0400125-1.3540351-.1866301-1.6711689-.3098832-.4200976-.163266-.71990635-.3582919-1.03482764-.6732488-.31492092-.3149206-.50998132-.6147301-.67324884-1.0348277-.12325314-.3171356-.26987066-.7936801-.30988316-1.6711689-.04329938-.9490126-.05248088-1.2336752-.05248088-3.6367542 0-2.4031166.0091815-2.6877754.05248088-3.6367917.0400125-.8774926.18663002-1.3540352.30988316-1.671169.16326602-.4200975.35829192-.71990633.67324884-1.03482762.31492054-.31495654.61473004-.50998131 1.03482764-.67324883.3171357-.12325314.7936801-.26987066 1.6711689-.30988317.9490127-.04329938 1.2336752-.05248088 3.6367918-.05248088zm0 2.7567641c-2.5524829 0-4.6216506 2.0691528-4.6216506 4.6216506 0 2.552449 2.0691527 4.6216131 4.6216506 4.6216131 2.552449 0 4.621613-2.0691528 4.621613-4.6216131 0-2.5524828-2.0691527-4.6216506-4.621613-4.6216506zm0 7.6216127c-1.6568815 0-3.0000192-1.3431369-3.0000192-2.9999809 0-1.6568814 1.3431377-3.0000191 3.0000192-3.0000191 1.6568439 0 2.9999808 1.3431377 2.9999808 3.0000191 0 1.656844-1.3431369 2.9999809-2.9999808 2.9999809zm5.8842007-7.8042002c0 .596475-.4835438 1.0799851-1.0800189 1.0799851-.5964376 0-1.0799851-.4835101-1.0799851-1.0799851 0-.5964751.4835438-1.0800189 1.0799851-1.0800189.5964751 0 1.0800189.4835475 1.0800189 1.0800189z"/>
</svg>
