<svg xmlns="http://www.w3.org/2000/svg" viewBox="0 0 32 32">
  <path fill="currentColor" d="M15,20.5096774 C15,21.3419355 15.664557,22 16.5,22 C17.335443,22 18,21.3419355 18,20.5096774 C18,19.6387097 17.335443,19 16.5,19 C15.664557,19 15,19.6387097 15,20.5096774 Z M20,13.399061 C20,14.8075117 18.9307876,15.7464789 18.071599,16.6666667 C17.4988067,17.2676056 17.3842482,17.6431925 17.3842482,18 L15.0357995,18 C15.0930788,17.0985915 15.3221957,16.6478873 16.1050119,15.7464789 C16.7732697,14.9953052 17.5369928,14.4131455 17.5369928,13.5305164 C17.5369928,12.7042254 16.9832936,12.1408451 16.0668258,12.1408451 C15.0930788,12.1408451 14.5775656,12.8544601 14.5202864,13.7370892 L12,13.7370892 C12.2291169,11.5962441 13.7565632,10 16.124105,10 C18.5107399,10 20,11.314554 20,13.399061 Z"/>
</svg>
