<svg xmlns="http://www.w3.org/2000/svg" viewBox="0 0 32 32">
  <path fill="currentColor" fill-rule="evenodd" d="M12.125 23H9.21875v-9.34375H12.125V23zm-.25-11.125c-.333335.33333-.729164.5-1.1875.5-.458336 0-.854165-.16667-1.1875-.5-.333335-.33333-.5-.72916-.5-1.1875 0-.45834.166665-.85417.5-1.1875s.729164-.5 1.1875-.5c.458336 0 .854165.16667 1.1875.5.333335.33333.5.72916.5 1.1875 0 .45834-.166665.85417-.5 1.1875zM23 23h-2.90625v-4.5625c0-.270835-.00521-.494791-.01563-.671875-.01041-.177084-.04166-.390624-.09374-.640625-.05209-.250001-.125-.447916-.21876-.59375-.09375-.145834-.23958-.276041-.4375-.390625-.19791-.114584-.442702-.171875-.73437-.171875-.687503 0-1.15104.218748-1.390625.65625-.239585.437502-.359375 1.02083-.359375 1.75V23H13.9375v-9.34375H16.75v1.28125h.03125c.208334-.416669.552081-.77604 1.03125-1.078125.479169-.302085 1.05208-.453125 1.71875-.453125.70834 0 1.29687.109374 1.76563.328125.46875.218751.82291.541665 1.0625.96875.23958.427085.40624.890623.5 1.390625.09375.500002.14062 1.093747.14062 1.78125V23z"/>
</svg>
