<svg xmlns="http://www.w3.org/2000/svg" viewBox="0 0 32 32">
  <path fill="currentColor" fill-rule="evenodd" d="M25.6001303 10.8676544l.0000216.0000216c.0270978.0212328.0360115.0587439.0172927.0891774l-5.6559463 9.1219136-4.0662657-6.5580867 3.2401429-5.22607623C19.2516085 8.10740215 19.4660742 8 19.6816084 8c.0520564 0 .1039341.00796226.1547426.02087883.0404682.01026255.0804017.02300216.1183743.04193467l5.6281124 2.7929859.0064179.0031849c.0044568.0021233.0073092.005839.0108747.0086701zm-11.4896435 1.4625659l5.3275695 8.5927195-5.3275695-2.6438286v-5.9488909zm6.1280199 8.9899487v.0000197l5.4186693-8.7394045v10.4728606c0 .5276311-.4626211.7259803-1.0332786.4427004l-4.3853907-2.1761762zm-7.0529141-10.444018c.0205016.0100855.0335157.0309644.0335157.0536127v12.1238779c0 .3878492-.2110781.6189318-.5120056.6189318-.1067864 0-.2249824-.0291949-.3490616-.09077l-4.84140182-2.4024809C7.23247036 21.0382988 7 20.6649584 7 20.3496525V8.57080436c0-.3101753.16882566-.49507689.40949657-.49507689.08557205 0 .18005763.02335605.27935646.07254524l5.49673807 2.72787349.0000015.0000048z"/>
</svg>
