<svg xmlns="http://www.w3.org/2000/svg" viewBox="0 0 32 32">
  <path fill="currentColor" fill-rule="evenodd" d="M16.0003237 6C10.4779031 6 5.99973333 10.4770101 5.99973333 16.0006058c0 4.0936176 2.46251839 7.6121838 5.98696257 9.158604-.0282238-.6973599-.0047042-1.537016.1728701-2.2967052.1928618-.811431 1.28653-5.4483456 1.28653-5.4483456s-.3186923-.6385639-.3186923-1.5828827c0-1.481745.8596465-2.5883517 1.9286181-2.5883517.9090381 0 1.3488592.6832474 1.3488592 1.5017367 0 .9137438-.583292 2.2814177-.8831673 3.547958-.2504855 1.0619191.5315463 1.926271 1.5781762 1.926271 1.8945138 0 3.1704605-2.4331221 3.1704605-5.3166369 0-2.1908675-1.4758635-3.8313712-4.1606446-3.8313712-3.0328729 0-4.9226701 2.261426-4.9226701 4.7874691 0 .8725853.2563652 1.4864492.6585546 1.9615503.185806.2199101.2105014.3069332.1434701.5585929-.0470392.1822783-.1575822.6268014-.2034455.8020227-.0670313.2528376-.2716531.3445649-.4997962.2504855-1.39825098-.5703554-2.0485681-2.1003172-2.0485681-3.8207877 0-2.8400148 2.395485-6.2480141 7.1464633-6.2480141 3.8184319 0 6.3315045 2.7647521 6.3315045 5.7294296 0 3.9231004-2.1802807 6.853682-5.3965871 6.853682-1.07838 0-2.0944348-.5832888-2.4425268-1.2453736 0 0-.5809379 2.3037635-.7032421 2.7482854-.2116777.7702725-.6268005 1.5417201-1.0066466 2.1414756.8996298.2657735 1.8498263.4104201 2.8341312.4104201 5.5224205 0 9.9994237-4.4770101 9.9994237-9.9994392C25.9997707 10.4770434 21.5227675 6 16.000347 6"/>
</svg>
