<svg xmlns="http://www.w3.org/2000/svg" viewBox="0 0 32 32">
  <defs/>
  <path fill="currentColor" fill-rule="evenodd" d="M26 10.7757341c-.6613914.3011922-1.3734907.5048739-2.1204538.5958826.7628106-.4680376 1.3481261-1.2101852 1.6238788-2.09425914-.7142106.43336883-1.5034362.74864644-2.3465418.91765894C22.4849314 9.45937134 21.5245519 9 20.4616886 9c-2.0380366 0-3.6914991 1.6955591-3.6914991 3.7865633 0 .2968583.0316958.5850488.0950873.8624064-3.0692048-.1581799-5.7897419-1.6641379-7.61224333-3.95775081-.31801375.56121391-.49973664 1.21235271-.49973664 1.90574291 0 1.3131115.651878 2.4723717 1.64289497 3.1516806-.60433167-.0184181-1.17485711-.1906827-1.67353624-.4723726v.0465874c0 1.8353216 1.27311098 3.3661994 2.96355224 3.7128945-.3095619.0888409-.6360267.1332611-.9730582.1332611-.2377183 0-.4701529-.0227516-.6951943-.0671722.4701529 1.5037915 1.8330689 2.599133 3.4495527 2.6283867-1.2636048 1.0162502-2.8568422 1.6218866-4.58636607 1.6218866-.29793998 0-.59271046-.0173347-.88114193-.0520042C9.63444251 23.3726999 11.5763365 24 13.6608544 24c6.7934677 0 10.5071331-5.7692262 10.5071331-10.7735647 0-.1646805-.0031695-.329361-.0095089-.4907926.7216055-.5341276 1.348126-1.2004352 1.8415214-1.9599153"/>
</svg>
