<svg xmlns="http://www.w3.org/2000/svg" viewBox="0 0 32 32">
  <defs/>
  <path fill="#111" fill-rule="evenodd" d="M16.4972226 5.999968C11.2600345 5.999968 7 10.2612486 7 15.4999012c0 2.0775892.67001078 4.0043264 1.80896895 5.5682232l-1.18370709 3.529584 3.65149664-1.1670187c1.5018539.9941109 3.2941187 1.5692643 5.2259859 1.5692643 5.2371881 0 9.4972226-4.26142 9.4972226-9.4999142 0-5.2386526-4.2600741-9.5000718-9.4972226-9.5000718H16.4972226zm-2.6521528 4.8255406c-.1842056-.4411796-.3238175-.4578878-.6028854-.4692323-.0950181-.0055168-.200909-.0110335-.3183028-.0110335-.3630541 0-.7426541.1060781-.9716118.3406167-.2790663.2848193-.9714535.9493462-.9714535 2.3121282 0 1.362782.9938299 2.6807992 1.1277679 2.8652178.1396119.1841 1.9375474 3.0212592 4.7291759 4.1775429 2.183051.9047398 2.8308437.8208826 3.3276815.7148073.7257915-.1563588 1.6359503-.6927396 1.864908-1.3404016.2289574-.6479748.2289574-1.200906.16183-1.3181756-.0669698-.1172695-.251333-.1841003-.5304004-.323909-.2790663-.1396514-1.6359503-.8098506-1.8927985-.8992218-.251333-.0948872-.4913199-.0613142-.6810426.2067974-.268036.3741901-.5304005.7540541-.7426541.9829168-.1675031.1787412-.4412114.2011232-.6700108.1060781-.3071146-.1283025-1.1668446-.4301438-2.2278039-1.3739721-.8208113-.7315154-1.3791021-1.6417691-1.5409306-1.9153966-.1619879-.2791451-.0167029-.441338.1115632-.5920198.1396123-.1732245.2735515-.2960103.4131626-.4580422.1396119-.1618759.2177692-.2457296.3071146-.4356618.0950182-.1842575.0278908-.3741897-.0390786-.5138427-.0669698-.1396511-.6252618-1.5024359-.8542156-2.0552088l-.0000151.0000126z"/>
</svg>
