<svg xmlns="http://www.w3.org/2000/svg" viewBox="0 0 32 32">
  <defs/>
  <path fill="currentColor" fill-rule="evenodd" d="M23.4888393 9.28227646c.5282764.06021928.9914414.27851089 1.3895089.65488139.3980675.37637045.6566214.83929925.7756697 1.38880015.1041671.4892817.1841515 1.0444198.2399553 1.6654311.0558039.6210114.0874256 1.1347494.0948661 1.5412295C25.9962798 14.9390987 26 15.503646 26 16.2262774c0 .7226313-.0037202 1.2871786-.0111607 1.6936587-.0074405.4064802-.0390622.9202182-.0948661 1.5412295-.0558038.6210113-.1395084 1.1761495-.2511161 1.6654311-.1190482.5495009-.375742 1.0124297-.7700892 1.3888002-.3943473.3763705-.8556522.5946621-1.3839286.6548814-1.651794.1881852-4.1480488.2822764-7.4888393.2822764-3.3407905 0-5.8370453-.0940912-7.48883929-.2822764-.52827645-.0602193-.99144146-.2785109-1.38950892-.6548814-.39806747-.3763705-.65662143-.8392993-.77566965-1.3888002-.10416718-.4892816-.1841515-1.0444198-.23995535-1.6654311-.05580385-.6210113-.08742556-1.1347493-.09486608-1.5412295-.00558038-.3048601-.00906809-.6986329-.01046317-1.1813257v-1.024666c.00139508-.4826928.00488279-.8764657.01046317-1.1813258.00744052-.4064801.03906223-.9202181.09486608-1.5412295.05580385-.6210113.13950837-1.1761494.25111607-1.6654311.11904821-.5495009.37574207-1.0124297.77008928-1.38880015.39434721-.3763705.85565212-.59466211 1.38392857-.65488139 1.56920429-.17877599 3.90053449-.2726321 6.99405469-.28157078L16 9c3.3407905 0 5.8370453.09409121 7.4888393.28227646zm-9.6056276 3.80531474v6.2773723l5.8852612-3.1386861-5.8852612-3.1386862z"/>
</svg>
