<?xml version="1.0" encoding="utf-8"?>
<!-- Generator: Adobe Illustrator 18.1.0, SVG Export Plug-In . SVG Version: 6.00 Build 0)  -->
<svg version="1.1" id="Calque_1" xmlns="http://www.w3.org/2000/svg" xmlns:xlink="http://www.w3.org/1999/xlink" x="0px" y="0px"
	 viewBox="0 0 20 20" enable-background="new 0 0 20 20" xml:space="preserve">
<path fill-rule="evenodd" clip-rule="evenodd" fill="#1A171B" d="M16.967,1H4.741H4.657C3.496,1,2,2.601,2,3.762v12.227
	C2,17.15,3.579,18,4.741,18h12.227C18.128,18,19,17.15,19,15.989V3.762C19,2.601,18.128,1,16.967,1z M13,3.741
	C13,3.332,13.332,3,13.741,3h1.519C15.668,3,16,3.332,16,3.741v1.519C16,5.668,15.668,6,15.259,6h-1.519C13.332,6,13,5.668,13,5.259
	V3.741z M10.87,6.639c1.825,0,3.304,1.433,3.304,3.201c0,1.768-1.479,3.201-3.304,3.201S7.566,11.608,7.566,9.84
	C7.566,8.072,9.045,6.639,10.87,6.639z M17,15.556C17,15.915,16.925,16,16.565,16H5.111C4.751,16,4,15.915,4,15.556V8h1.968
	C5.831,9,5.757,9.149,5.757,9.639c0,2.736,2.289,5.182,5.113,5.182c2.824,0,5.113-2.37,5.113-5.106c0-0.49-0.074-0.715-0.211-1.715
	H17V15.556z"/>
</svg>
