<svg viewBox="0 0 504 504" xmlns="http://www.w3.org/2000/svg" xmlns:xlink="http://www.w3.org/1999/xlink"><defs><path id="a" d="M0 503.94h503.84V.16H0z"/></defs><g fill="none" fill-rule="evenodd"><mask id="b" fill="#fff"><use xlink:href="#a"/></mask><path d="M251.92.16c-68.417 0-76.996.29-103.866 1.515-26.814 1.223-45.127 5.482-61.15 11.71-16.567 6.437-30.616 15.05-44.622 29.056-14.005 14.008-22.62 28.057-29.056 44.623-6.228 16.024-10.487 34.337-11.71 61.15C.29 175.083 0 183.663 0 252.08s.29 76.996 1.516 103.866c1.223 26.814 5.482 45.127 11.71 61.15 6.437 16.567 15.05 30.616 29.056 44.622 14.006 14.005 28.055 22.62 44.62 29.057 16.025 6.227 34.338 10.486 61.152 11.71 26.87 1.225 35.45 1.515 103.867 1.515 68.42 0 76.998-.29 103.868-1.516 26.814-1.223 45.127-5.482 61.15-11.71 16.567-6.437 30.616-15.05 44.622-29.056 14.004-14.006 22.618-28.055 29.056-44.62 6.227-16.025 10.486-34.338 11.71-61.152 1.225-26.87 1.515-35.45 1.515-103.866 0-68.418-.29-76.997-1.514-103.867-1.223-26.814-5.482-45.127-11.71-61.15-6.437-16.567-15.05-30.616-29.056-44.622-14.007-14.003-28.056-22.617-44.622-29.054C400.914 7.158 382.6 2.9 355.788 1.676 328.918.45 320.338.16 251.92.16zm0 45.39c67.266 0 75.234.257 101.798 1.47 24.562 1.12 37.9 5.223 46.778 8.673 11.76 4.57 20.15 10.03 28.966 18.845 8.816 8.815 14.275 17.207 18.845 28.966 3.45 8.877 7.554 22.216 8.674 46.778 1.214 26.564 1.47 34.532 1.47 101.798 0 67.265-.256 75.233-1.47 101.797-1.12 24.562-5.222 37.9-8.672 46.778-4.57 11.76-10.03 20.15-18.845 28.966-8.815 8.818-17.207 14.277-28.966 18.847-8.877 3.45-22.216 7.554-46.778 8.674-26.56 1.213-34.528 1.47-101.798 1.47s-75.236-.257-101.797-1.47c-24.562-1.12-37.9-5.223-46.778-8.673-11.76-4.57-20.15-10.03-28.966-18.845-8.815-8.814-14.275-17.206-18.845-28.965-3.45-8.877-7.554-22.216-8.674-46.778-1.21-26.565-1.47-34.533-1.47-101.798 0-67.266.26-75.234 1.47-101.798 1.12-24.562 5.225-37.9 8.675-46.778 4.57-11.76 10.03-20.15 18.845-28.966 8.814-8.816 17.206-14.275 28.965-18.845 8.877-3.45 22.216-7.554 46.778-8.674 26.564-1.212 34.532-1.47 101.798-1.47z" fill="#0A0A08" mask="url(#b)"/><path d="M251.92 336.053c-46.377 0-83.973-37.596-83.973-83.973 0-46.378 37.596-83.974 83.974-83.974 46.38 0 83.975 37.596 83.975 83.974 0 46.377-37.596 83.973-83.973 83.973zm0-213.338c-71.446 0-129.364 57.918-129.364 129.365 0 71.446 57.918 129.364 129.365 129.364s129.366-57.918 129.366-129.364c0-71.447-57.918-129.365-129.364-129.365zm164.707-5.11c0 16.695-13.535 30.23-30.23 30.23-16.696 0-30.23-13.535-30.23-30.23 0-16.697 13.534-30.23 30.23-30.23 16.695 0 30.23 13.533 30.23 30.23" fill="#0A0A08"/></g></svg>