<?xml version="1.0" encoding="utf-8"?>
<!-- Generator: Adobe Illustrator 18.1.0, SVG Export Plug-In . SVG Version: 6.00 Build 0)  -->
<svg version="1.1" id="Calque_1" xmlns="http://www.w3.org/2000/svg" xmlns:xlink="http://www.w3.org/1999/xlink" x="0px" y="0px"
	 viewBox="0 0 20 20" enable-background="new 0 0 20 20" xml:space="preserve">
<path fill="#1A171B" d="M18.175,4.527c-0.602,0.268-1.248,0.451-1.926,0.532c0.693-0.42,1.224-1.087,1.476-1.875
	c-0.648,0.389-1.369,0.67-2.128,0.823c-0.61-0.663-1.483-1.073-2.443-1.073c-1.849,0-3.348,1.519-3.348,3.398
	c0,0.264,0.031,0.52,0.088,0.773C7.109,6.96,4.643,5.607,2.99,3.555c-0.287,0.5-0.451,1.085-0.451,1.708
	c0,1.177,0.335,2.217,1.229,2.825C3.222,8.067,2,7.918,2,7.664c0,0.014,0,0.027,0,0.041c0,1.644,1.407,3.018,2.94,3.33
	c-0.281,0.077-0.449,0.12-0.756,0.12c-0.216,0-0.358-0.023-0.564-0.062c0.425,1.346,1.696,2.33,3.159,2.359
	c-1.144,0.91-2.569,1.452-4.14,1.452c-0.27,0-0.531-0.018-0.794-0.05c1.48,0.965,3.249,1.528,5.136,1.528
	c6.162,0,9.53-5.173,9.53-9.66c0-0.148-0.005-0.294-0.008-0.442C17.152,5.803,17.725,5.208,18.175,4.527z"/>
</svg>
