<?xml version="1.0" standalone="no"?>
<!DOCTYPE svg PUBLIC "-//W3C//DTD SVG 20010904//EN"
 "http://www.w3.org/TR/2001/REC-SVG-20010904/DTD/svg10.dtd">
<svg version="1.0" xmlns="http://www.w3.org/2000/svg"
 width="260.000000pt" height="260.000000pt" viewBox="0 0 260.000000 260.000000"
 preserveAspectRatio="xMidYMid meet">
<metadata>
Created by potrace 1.11, written by Peter Selinger 2001-2013
</metadata>
<g transform="translate(0.000000,260.000000) scale(0.100000,-0.100000)"
fill="#000000" stroke="none">
<path d="M500 2117 c0 -278 -13 -228 115 -441 39 -64 78 -131 89 -149 25 -44
511 -860 549 -922 16 -27 40 -68 53 -90 12 -22 54 -92 92 -155 l70 -115 256
-3 c141 -1 256 0 256 2 0 2 -34 59 -75 126 -41 67 -75 124 -75 126 0 2 -31 53
-70 114 -39 61 -70 117 -70 124 0 7 19 26 43 43 64 47 169 151 214 213 40 56
103 169 107 192 1 7 4 18 8 23 3 6 14 42 23 80 26 98 26 304 2 415 -9 43 -39
131 -52 156 -8 16 -15 34 -15 39 0 9 -22 45 -77 125 -20 28 -138 147 -169 170
-55 40 -160 96 -214 114 -150 50 -141 49 -612 53 l-448 5 0 -245z m803 -179
c47 -9 71 -15 75 -18 1 -2 5 -3 10 -4 32 -8 106 -58 152 -105 88 -88 131 -199
129 -331 -2 -90 -26 -164 -74 -231 -34 -45 -120 -129 -134 -129 -7 0 -29 33
-157 230 -48 74 -110 171 -139 215 -29 44 -91 140 -139 213 -47 73 -86 137
-86 142 0 6 -4 10 -10 10 -5 0 -10 4 -10 10 0 12 324 11 383 -2z"/>
<path d="M500 802 l0 -562 218 2 217 3 0 205 0 205 -104 170 c-57 94 -126 205
-152 248 -27 43 -49 82 -49 87 0 6 -4 10 -10 10 -5 0 -10 5 -10 11 0 6 -15 34
-33 62 -19 29 -43 68 -55 87 l-22 35 0 -563z"/>
</g>
</svg>
